# xmcd
#
# Track frame offsets:
#	150
#	4905
#	24132
#	44757
#	65840
#	84102
#	104680
#	108937
#	126750
#	148235
#	164670
#	183807
#	201175
#	218075
#	236105
#	260527
#	278580
#
# Disc length: 3970 seconds
#
# Revision: 0
# Processed by: cddbd v1.4PL0 Copyright (c) Steve Scherf et al.
# Submitted via: EasyCDDAExtractor 4.6.9.1
#
DISCID=f70f8011
DTITLE=Mario Winans  - Story of My Heart
DYEAR=1997
DGENRE=R&B
TTITLE0=Praylude
TTITLE1=Every Now and Then 
TTITLE2=Stay With Me
TTITLE3=Arouse Me
TTITLE4=Don't Know 
TTITLE5=Love Man
TTITLE6=I Wanna Be Your Man (Interlude)
TTITLE7=You Never Know 
TTITLE8=Come Back Home
TTITLE9=My Sweetheart
TTITLE10=Don't Know (Remix)
TTITLE11=It's All Good
TTITLE12=Don't Take Your Love Away
TTITLE13=One Last Chance
TTITLE14=Love Is In The Air
TTITLE15=Loving Arms
TTITLE16=Take My Breath Away
EXTD=
EXTT0=
EXTT1=
EXTT2=
EXTT3=
EXTT4=
EXTT5=
EXTT6=
EXTT7=
EXTT8=
EXTT9=
EXTT10=
EXTT11=
EXTT12=
EXTT13=
EXTT14=
EXTT15=
EXTT16=
PLAYORDER=
